# xmcd
#
# Track frame offsets:
#	150
#	3377
#	7797
#	13307
#	21562
#	24975
#	31212
#	35470
#	42680
#	54530
#	64382
#	74960
#	82140
#	93145
#	98897
#	101815
#	111332
#	115672
#	126532
#	135632
#	143660
#	146550
#	155295
#	161207
#	169450
#	169930
#	170702
#	175872
#	181802
#	189367
#	191795
#	201640
#	205472
#	211740
#	215267
#	219677
#	230055
#	253582
#	254322
#	273717
#	282545
#	294855
#	299737
#	301955
#	305367
#	306670
#	309132
#	310310
#	312177
#	313650
#	314627
#	316135
#	317662
#	319472
#	320885
#	322415
#	323835
#	324835
#	326360
#	327607
#	328897
#	330302
#	331555
#	332852
#	333892
#	334992
#
# Disc length: 4478 seconds
#
# Revision: 1
# Processed by: cddbd v1.5.1PL0 Copyright (c) Steve Scherf et al.
# Submitted via: CDex 1.50Beta5
#
DISCID=17117c42
DTITLE=新世界楽曲雑技団 - 真説サムライスピリッツ武士道列伝Cd1邪天降臨之章
DYEAR=1900
DGENRE=Game
TTITLE0=語りべ
TTITLE1=運命
TTITLE2=お寺
TTITLE3=陽だまり
TTITLE4=侍溜り
TTITLE5=枯れ葉
TTITLE6=狂態組曲第1番
TTITLE7=月の花
TTITLE8=黒鮪
TTITLE9=獣女1
TTITLE10=城下町
TTITLE11=社
TTITLE12=陰界の城
TTITLE13=狂女
TTITLE14=快楽
TTITLE15=波の詩
TTITLE16=妖刀
TTITLE17=果実
TTITLE18=祈りの島
TTITLE19=獣女2
TTITLE20=緊迫1
TTITLE21=実り
TTITLE22=遭遇武闘
TTITLE23=剣舞1
TTITLE24=剣績1
TTITLE25=剣績2
TTITLE26=大聖堂組曲第1番
TTITLE27=大聖堂組曲第2番
TTITLE28=大聖堂組曲第3番
TTITLE29=大聖堂組曲第4番
TTITLE30=大聖堂組曲第5番
TTITLE31=狂態組曲第2番
TTITLE32=狂態組曲第3番
TTITLE33=白夜
TTITLE34=緊迫2
TTITLE35=放浪
TTITLE36=天空へ(ウィーン・バージョン)
TTITLE37=期待
TTITLE38=サムライな彼
TTITLE39=Drama1/覇王丸・お静
TTITLE40=Drama2/ナコルル・リムルル
TTITLE41=Drama3/疾風の鈴音
TTITLE42=Drama4/服部半蔵・王虎
TTITLE43=Drama5/花諷院和狆・花諷院骸羅
TTITLE44=Drama6/首斬り破沙羅
TTITLE45=Drama7/ズィーガー・ルー・ビクトリア
TTITLE46=Drama8/時姫
TTITLE47=Drama9/神像
TTITLE48=BattleVoice1/覇王丸
TTITLE49=BattleVoice2/ガルフォード
TTITLE50=BattleVoice3/橘右京
TTITLE51=BattleVoice4/ナコルル
TTITLE52=BattleVoice5/牙神幻十朗
TTITLE53=BattleVoice6/チャムチャム
TTITLE54=BattleVoice7/疾風の鈴音
TTITLE55=BattleVoice8/リムルル
TTITLE56=BattleVoice9/シャルロット
TTITLE57=BattleVoice10/千両狂死朗
TTITLE58=BattleVoice11/柳生十兵衛
TTITLE59=BattleVoice12/服部半蔵
TTITLE60=BattleVoice13/花諷院和狆
TTITLE61=BattleVoice14/花諷院骸羅
TTITLE62=BattleVoice15/首斬り破沙羅
TTITLE63=BattleVoice16/ナインハルト・ズィーガー
TTITLE64=BattleVoice17/アースクェイク
TTITLE65=BattleVoice18/王虎
EXTD=
EXTT0=
EXTT1=
EXTT2=
EXTT3=
EXTT4=
EXTT5=
EXTT6=
EXTT7=
EXTT8=
EXTT9=
EXTT10=
EXTT11=
EXTT12=
EXTT13=
EXTT14=
EXTT15=
EXTT16=
EXTT17=
EXTT18=
EXTT19=
EXTT20=
EXTT21=
EXTT22=
EXTT23=
EXTT24=
EXTT25=
EXTT26=
EXTT27=
EXTT28=
EXTT29=
EXTT30=
EXTT31=
EXTT32=
EXTT33=
EXTT34=
EXTT35=
EXTT36=
EXTT37=
EXTT38=
EXTT39=
EXTT40=
EXTT41=
EXTT42=
EXTT43=
EXTT44=
EXTT45=
EXTT46=
EXTT47=
EXTT48=
EXTT49=
EXTT50=
EXTT51=
EXTT52=
EXTT53=
EXTT54=
EXTT55=
EXTT56=
EXTT57=
EXTT58=
EXTT59=
EXTT60=
EXTT61=
EXTT62=
EXTT63=
EXTT64=
EXTT65=
PLAYORDER=
